<svg viewBox="0 0 575 575" class="roots-wrapper"><g transform="rotate(0 0 0)"><svg viewBoxSize="575" data-root-id="0241634254796" xmlns="http://www.w3.org/2000/svg" xmlns:xlink="http://www.w3.org/1999/xlink" version="1.1" id="Layer_1" x="196.31000122070313" y="275.0585075683594" viewBox="195.5999755859375 307.4000244140625 504.00006103515625 216" xml:space="preserve" height="23.892814007402347" width="55.74989740248921" preserveAspectRatio="xMinYMin" zoom="1" editorType="buyer" data-layer-role="icon" style="position: absolute; height: 23.8928px; width: 55.7499px; top: 275.059px; left: 196.31px;"><path class="st0" d="M231,515.4c22.1-35.3,51.4-64.9,85.7-88.4c61-41.9,134.6-63,207-74.1c58.2-8.9,117.1-11.8,175.9-11.7v-24.8     c0-5-4-9-9-9h-486c-5,0-9,4-9,9v198c0,5,4,9,9,9h20.8C225.4,523.4,229.5,517.9,231,515.4z" name="Layer %{number}" zoom="1" data-layer-id="0180145655545" style="fill: rgb(238, 117, 13); fill-opacity: 1;"></path><path class="st0" d="M638.4,383.5c-48.3,8.5-94.2,28.4-128.9,62.8c-22.2,22-38.9,48.5-51.4,77.1h232.5c5,0,9-4,9-9V378.8     C679.1,378.6,658.6,380,638.4,383.5z" name="Layer %{number}" zoom="1" data-layer-id="6044338455951" style="fill: rgb(9, 57, 93); fill-opacity: 1;"></path></svg></g><g transform="rotate(0 0 0)"><svg viewBoxSize="575" data-root-id="8722161256346" xmlns="http://www.w3.org/2000/svg" y="310.9515075683594" viewBox="0 0 0 0" x="266.06000122070316" height="0" width="0" fontUrl="https://fonts.gstatic.com/s/oswald/v53/TK3_WkUHHAIjg75cFRf3bXL8LICs1_FvgUFoZAaRliE.ttf" zoom="1" editorType="buyer" data-layer-role="slogan" style="position: absolute; top: 310.952px; width: 0px; height: 0px; left: 266.06px;"><g data-horizontal-grow="left" zoom="1" root="[object Object]" style="fill: rgb(238, 117, 13); fill-opacity: 1;"><path d="" transform="translate(0, 0)"></path></g></svg></g><g transform="rotate(0 0 0)"><svg viewBoxSize="575" data-root-id="8377077357741" xmlns="http://www.w3.org/2000/svg" y="275.1915075683594" viewBox="2.2799999713897705 9.40999984741211 112.6300048828125 24.75" x="266.06000122070316" height="24.75" width="112.6300048828125" fontUrl="https://fonts.gstatic.com/s/bungee/v15/N0bU2SZBIuF2PU_ECn50Kd_PmA.ttf" zoom="1" editorType="buyer" data-layer-role="brandName" style="position: absolute; top: 275.192px; width: 112.63px; height: 24.75px; left: 266.06px;"><g data-horizontal-grow="left" zoom="1" root="[object Object]" style="fill: rgb(0, 0, 0); fill-opacity: 1;"><path d="M8.55 33.66L8.55 33.66L3.47 33.66Q2.28 33.66 2.28 32.47L2.28 32.47L2.28 11.09Q2.28 9.90 3.47 9.90L3.47 9.90L14.45 9.90Q16.93 9.90 18.35 10.59Q19.77 11.29 20.36 12.52Q20.96 13.76 20.96 15.41L20.96 15.41L20.96 16.93Q20.96 18.32 20.56 19.27Q20.16 20.23 19.11 20.69L19.11 20.69Q20.92 20.89 22.01 22.14Q23.10 23.40 23.10 25.48L23.10 25.48L23.10 32.47Q23.10 33.66 21.91 33.66L21.91 33.66L16.80 33.66Q15.61 33.66 15.61 32.47L15.61 32.47L15.61 27.42Q15.61 26.66 15.33 26.33Q15.05 26.00 14.36 26.00L14.36 26.00L9.74 26.00L9.74 32.47Q9.74 33.66 8.55 33.66ZM12.21 15.84L9.74 15.84L9.74 20.06L12.21 20.06Q13.07 20.06 13.37 19.62Q13.66 19.17 13.66 18.51L13.66 18.51L13.66 17.39Q13.66 16.73 13.37 16.29Q13.07 15.84 12.21 15.84L12.21 15.84ZM46.76 16.17L46.76 27.42Q46.76 28.94 46.32 30.18Q45.87 31.42 44.75 32.31Q43.63 33.20 41.63 33.68Q39.63 34.16 36.53 34.16L36.53 34.16Q33.43 34.16 31.43 33.68Q29.44 33.20 28.31 32.31Q27.19 31.42 26.73 30.18Q26.27 28.94 26.27 27.42L26.27 27.42L26.27 16.17Q26.27 14.65 26.73 13.41Q27.19 12.18 28.31 11.29Q29.44 10.40 31.43 9.90Q33.43 9.41 36.53 9.41L36.53 9.41Q39.63 9.41 41.63 9.90Q43.63 10.40 44.75 11.29Q45.87 12.18 46.32 13.41Q46.76 14.65 46.76 16.17L46.76 16.17ZM33.76 17.36L33.76 26.24Q33.76 26.90 34.25 27.34Q34.75 27.79 36.53 27.79L36.53 27.79Q38.35 27.79 38.82 27.34Q39.30 26.90 39.30 26.24L39.30 26.24L39.30 17.36Q39.30 16.70 38.82 16.27Q38.35 15.84 36.53 15.84L36.53 15.84Q34.75 15.84 34.25 16.27Q33.76 16.70 33.76 17.36L33.76 17.36ZM71.18 11.09L71.18 27.42Q71.18 28.94 70.74 30.18Q70.29 31.42 69.15 32.31Q68.01 33.20 66.03 33.68Q64.05 34.16 60.98 34.16L60.98 34.16Q57.92 34.16 55.94 33.68Q53.96 33.20 52.82 32.31Q51.68 31.42 51.23 30.18Q50.79 28.94 50.79 27.42L50.79 27.42L50.79 11.09Q50.79 9.90 51.98 9.90L51.98 9.90L57.16 9.90Q58.34 9.90 58.34 11.09L58.34 11.09L58.34 26.14Q58.34 26.80 58.84 27.24Q59.33 27.69 61.05 27.69L61.05 27.69Q62.80 27.69 63.29 27.24Q63.79 26.80 63.79 26.14L63.79 26.14L63.79 11.09Q63.79 9.90 64.98 9.90L64.98 9.90L69.99 9.90Q71.18 9.90 71.18 11.09L71.18 11.09ZM86.79 33.66L86.79 33.66L81.44 33.66Q80.26 33.66 80.26 32.47L80.26 32.47L80.26 16.27L75.41 16.27Q74.22 16.27 74.22 15.08L74.22 15.08L74.22 11.09Q74.22 9.90 75.41 9.90L75.41 9.90L92.83 9.90Q94.02 9.90 94.02 11.09L94.02 11.09L94.02 15.08Q94.02 16.27 92.83 16.27L92.83 16.27L87.98 16.27L87.98 32.47Q87.98 33.66 86.79 33.66ZM113.72 33.66L113.72 33.66L98.41 33.66Q97.22 33.66 97.22 32.47L97.22 32.47L97.22 11.09Q97.22 9.90 98.41 9.90L98.41 9.90L113.72 9.90Q114.91 9.90 114.91 11.09L114.91 11.09L114.91 14.95Q114.91 16.14 113.72 16.14L113.72 16.14L104.61 16.14L104.61 18.68L111.05 18.68Q112.23 18.68 112.23 19.87L112.23 19.87L112.23 23.40Q112.23 24.59 111.05 24.59L111.05 24.59L104.61 24.59L104.61 27.42L113.72 27.42Q114.91 27.42 114.91 28.61L114.91 28.61L114.91 32.47Q114.91 33.66 113.72 33.66Z" transform="translate(0, 0)"></path></g></svg></g></svg>